<svg id="Слой_1" data-name="Слой 1" xmlns="http://www.w3.org/2000/svg" xmlns:xlink="http://www.w3.org/1999/xlink" viewBox="0 0 439.61 548.08"><defs><style>.cls-1{fill:none;}.cls-2{clip-path:url(#clip-path);}.cls-3{fill:#8abe5c;}</style><clipPath id="clip-path" transform="translate(-63.66 -9.42)"><rect class="cls-1" width="566.93" height="566.93"/></clipPath></defs><title>Безымянный-1</title><g class="cls-2"><g class="cls-2"><path class="cls-3" d="M283.35,9.42C162.24,9.42,63.66,108,63.66,229.12a215.73,215.73,0,0,0,3.91,41.25c.11.8.57,3.21,1.49,7.35A216.11,216.11,0,0,0,83.77,321c23.67,55.72,75.72,141.33,189.93,233a15.54,15.54,0,0,0,19.53,0c114.1-91.69,166.26-177.3,189.93-233a213.58,213.58,0,0,0,14.71-43.32c.92-4.14,1.38-6.55,1.49-7.35a225.83,225.83,0,0,0,3.91-41.25C503,108,404.46,9.42,283.35,9.42M468.57,265c0,.23-.11.46-.11.68-.12.58-.46,2.3-1,5v.23a182.27,182.27,0,0,1-12.75,37.45c-.12.12-.12.35-.23.46C433,359.64,385.84,437.32,283.35,522c-102.49-84.68-149.6-162.36-171.09-213.26-.11-.11-.11-.34-.23-.46a195.25,195.25,0,0,1-12.75-37.45v-.23c-.69-2.65-.92-4.37-1-5,0-.22-.11-.45-.11-.8A187.41,187.41,0,0,1,94.68,229c0-104,84.68-188.67,188.67-188.67S472,125,472,229a187,187,0,0,1-3.45,36" transform="translate(-63.66 -9.42)"/><path class="cls-3" d="M283.35,92c-76.87,0-139.49,62.62-139.49,139.49S206.48,371,283.35,371,422.84,308.4,422.84,231.53,360.22,92,283.35,92m0,248A108.47,108.47,0,1,1,391.82,231.53,108.6,108.6,0,0,1,283.35,340" transform="translate(-63.66 -9.42)"/></g></g></svg>