<svg id="Слой_1" data-name="Слой 1" xmlns="http://www.w3.org/2000/svg" xmlns:xlink="http://www.w3.org/1999/xlink" viewBox="0 0 565.59 565.59"><defs><style>.cls-1,.cls-4{fill:none;}.cls-2{clip-path:url(#clip-path);}.cls-3{fill:#8bc540;}.cls-4{stroke:#8bc540;stroke-miterlimit:10;stroke-width:15px;}</style><clipPath id="clip-path" transform="translate(-0.67 -0.67)"><rect class="cls-1" width="566.93" height="566.93"/></clipPath></defs><title>02</title><g class="cls-2"><path class="cls-3" d="M384,243.16a5.7,5.7,0,0,0-5.34-3.56H308.53L378,129.72a5.39,5.39,0,0,0,0-5.94,6.23,6.23,0,0,0-5.34-3h-95a6.25,6.25,0,0,0-5.35,3L183.21,302a5.39,5.39,0,0,0,0,5.94,7.06,7.06,0,0,0,5.35,3h61.17L183.21,469.46c-1.19,2.37,0,5.34,2.38,7.12.59.6,1.78.6,3,.6a6.78,6.78,0,0,0,4.75-1.78L383.37,249.7a6.38,6.38,0,0,0,.59-6.54M209.34,437.38,264,306.72a5.79,5.79,0,0,0-.6-5.35,7.33,7.33,0,0,0-4.75-2.38H198.06l83.15-166.3H362L291.9,242.57a5.39,5.39,0,0,0,0,5.94,6.25,6.25,0,0,0,5.35,3h68.9Z" transform="translate(-0.67 -0.67)"/><path class="cls-4" d="M384,243.16a5.7,5.7,0,0,0-5.34-3.56H308.53L378,129.72a5.39,5.39,0,0,0,0-5.94,6.23,6.23,0,0,0-5.34-3h-95a6.25,6.25,0,0,0-5.35,3L183.21,302a5.39,5.39,0,0,0,0,5.94,7.06,7.06,0,0,0,5.35,3h61.17L183.21,469.46c-1.19,2.37,0,5.34,2.38,7.12.59.6,1.78.6,3,.6a6.78,6.78,0,0,0,4.75-1.78L383.37,249.7A6.38,6.38,0,0,0,384,243.16ZM209.34,437.38,264,306.72a5.79,5.79,0,0,0-.6-5.35,7.33,7.33,0,0,0-4.75-2.38H198.06l83.15-166.3H362L291.9,242.57a5.39,5.39,0,0,0,0,5.94,6.25,6.25,0,0,0,5.35,3h68.9Z" transform="translate(-0.67 -0.67)"/><path class="cls-3" d="M283.46.67C127.53.67.67,127.53.67,283.46s126.86,282.8,282.79,282.8,282.8-126.86,282.8-282.8S439.4.67,283.46.67m0,535.08c-139.11,0-252.28-113.18-252.28-252.29S144.35,31.18,283.46,31.18,535.75,144.35,535.75,283.46,422.58,535.75,283.46,535.75" transform="translate(-0.67 -0.67)"/></g></svg>