<svg id="Слой_1" data-name="Слой 1" xmlns="http://www.w3.org/2000/svg" xmlns:xlink="http://www.w3.org/1999/xlink" viewBox="0 0 502.34 502.34"><defs><style>.cls-1{fill:none;}.cls-2{clip-path:url(#clip-path);}.cls-3{fill:#8bc540;}</style><clipPath id="clip-path" transform="translate(-32.29 -32.29)"><rect class="cls-1" width="566.93" height="566.93"/></clipPath></defs><title>04</title><g class="cls-2"><path class="cls-3" d="M522.2,134.49a12.55,12.55,0,0,0,12.44-12.32V44.73A12.41,12.41,0,0,0,522.2,32.29H444.76a12.38,12.38,0,0,0-12.32,12.44v27H134.49v-27a12.55,12.55,0,0,0-12.32-12.44H44.73A12.57,12.57,0,0,0,32.29,44.73v77.44a12.38,12.38,0,0,0,12.44,12.32h27v298h-27a12.55,12.55,0,0,0-12.44,12.32V522.2a12.57,12.57,0,0,0,12.44,12.44h77.44a12.38,12.38,0,0,0,12.32-12.44v-27h298v27a12.55,12.55,0,0,0,12.32,12.44H522.2a12.57,12.57,0,0,0,12.44-12.44V444.76a12.38,12.38,0,0,0-12.44-12.32h-27V134.49ZM56.92,56.92h52.94v52.94H56.92ZM109.86,510H56.92V457.07h52.94Zm322.58-65.25v25.85H134.49V444.76a12.35,12.35,0,0,0-12.32-12.32H96.32V134.49h25.85a12.35,12.35,0,0,0,12.32-12.32V96.32h298v25.85a12.35,12.35,0,0,0,12.32,12.32h25.85v298H444.76a12.35,12.35,0,0,0-12.32,12.32M510,510H457.07V457.07H510ZM457.07,56.92H510v52.94H457.07Z" transform="translate(-32.29 -32.29)"/></g></svg>