<svg id="Слой_1" data-name="Слой 1" xmlns="http://www.w3.org/2000/svg" xmlns:xlink="http://www.w3.org/1999/xlink" viewBox="0 0 565.59 565.59"><defs><style>.cls-1{fill:none;}.cls-2{clip-path:url(#clip-path);}.cls-3{fill:#8bc540;}</style><clipPath id="clip-path" transform="translate(-0.67 -0.67)"><rect class="cls-1" width="566.93" height="566.93"/></clipPath></defs><title>05</title><g class="cls-2"><path class="cls-3" d="M283.46.67C127.53.67.67,127.53.67,283.46s126.86,282.8,282.79,282.8,282.8-126.86,282.8-282.8S439.4.67,283.46.67m0,535.08c-139.11,0-252.28-113.18-252.28-252.29S144.35,31.18,283.46,31.18,535.75,144.35,535.75,283.46,422.57,535.75,283.46,535.75" transform="translate(-0.67 -0.67)"/><path class="cls-3" d="M330.94,459.37,317.75,390.8H248.12l-13.18,68.57H189.05l76.48-351.81H303l74.9,351.81Zm-20.05-105c-10.55-59.08-21.1-118.68-27.43-178.28-5.8,60.13-17.4,119.2-28.48,178.28Z" transform="translate(-0.67 -0.67)"/></g></svg>