<svg id="Слой_1" data-name="Слой 1" xmlns="http://www.w3.org/2000/svg" xmlns:xlink="http://www.w3.org/1999/xlink" viewBox="0 0 358.11 533.12"><defs><style>.cls-1,.cls-4{fill:none;}.cls-2{clip-path:url(#clip-path);}.cls-3{fill:#8bc540;}.cls-4{stroke:#8bc540;stroke-miterlimit:10;stroke-width:8px;}</style><clipPath id="clip-path" transform="translate(-110.57 -14.6)"><rect class="cls-1" width="566.93" height="566.93"/></clipPath></defs><title>06</title><g class="cls-2"><path class="cls-3" d="M464.65,534.25l-17.5-210a8.76,8.76,0,0,0-6.44-7.72l-11-3a.09.09,0,0,1-.06-.08v-6a8.74,8.74,0,0,0-6.85-8.55l-71.85-15.94a.07.07,0,0,1-.06-.07V260a.09.09,0,0,1,0-.07c.75-.58,1.52-1.11,2.27-1.72A139.08,139.08,0,0,0,403,158.71a.08.08,0,0,1,.08-.07h.27a8.83,8.83,0,0,0,8.83-8.83v-7.24c0-68.87-56.15-125.31-125-123.94a122.53,122.53,0,0,0-120,122.5v17.51a8.75,8.75,0,0,0,8.75,8.75,7.69,7.69,0,0,0,1.07-.17A139.32,139.32,0,0,0,226,258.16c.75.61,1.52,1.14,2.28,1.72a.09.09,0,0,1,0,.07v22.91a.09.09,0,0,1-.06.07l-71.86,16a8.74,8.74,0,0,0-6.85,8.53v6a.08.08,0,0,1-.06.08l-11,3a8.75,8.75,0,0,0-6.41,7.72l-17.5,210.05a8.74,8.74,0,0,0,8,9.45l.72,0H455.9a8.76,8.76,0,0,0,8.78-8.72c0-.26,0-.51,0-.76M412.14,314.49v6.92s-.05,11.09-.1,11.07l-61.16-31.39v-.28l61.2,13.6a.09.09,0,0,1,.06.08M184.59,141.13a105,105,0,0,1,210.05-.07.08.08,0,0,1-.08.07H368.38a43.8,43.8,0,0,1-43.76-43.76,8.76,8.76,0,0,0-8.75-8.76,8.64,8.64,0,0,0-1.9.21L308.72,90a376.53,376.53,0,0,0-124.13,52.07ZM193.78,157A359.09,359.09,0,0,1,308,108.12a.08.08,0,0,1,.1.06,61.37,61.37,0,0,0,60.31,50.46h17a.08.08,0,0,1,.08.08,121.58,121.58,0,0,1-43.5,86,81.74,81.74,0,0,1-104.69,0,121.69,121.69,0,0,1-43.53-87.6.08.08,0,0,1,0-.07m95.8,175.58-43.69-21.84a.08.08,0,0,1,0-.07V271.05A.08.08,0,0,1,246,271a98.54,98.54,0,0,0,87.3,0,.08.08,0,0,1,.11.07v39.67a.08.08,0,0,1,0,.07l-43.68,21.84h-.07m43.79-2.17v17.22c0,.05-.05,6.58-.1,6.56L312.6,340.84a.09.09,0,0,1,0-.15l20.67-10.31a.08.08,0,0,1,.11.07m-27,123.78-16.73,22.31a.07.07,0,0,1-.12,0l-16.73-22.31a.07.07,0,0,1,0-.06l16.73-72.49a.08.08,0,0,1,.15,0l16.73,72.49a.07.07,0,0,1,0,.06M267.62,349.9,247,356.81s-1.19-23.05-1.19-24.85l21.86,17.94c.06,0,.06,0,0,0M167.14,314.41l59.8-13.28a.07.07,0,0,1,.05.14l-58.81,29.21c-.05,0-1.1-9-1.1-9.07v-6.92a.09.09,0,0,1,.06-.08m-22.88,76.13a37.19,37.19,0,0,1,14.07,30.66h0a34.67,34.67,0,0,1-19.43,33.64.07.07,0,0,1-.11-.07l5.34-64.17a.09.09,0,0,1,.13-.06M394.63,526.15l-2.75-120.47a11,11,0,0,0-11-10.74h-3.69a.09.09,0,0,0-.08.08V526.15a.07.07,0,0,1-.08.07H202.17a.07.07,0,0,1-.08-.07V395a.08.08,0,0,0-.08-.08h-5.28a8.4,8.4,0,0,0-8.39,8.14l-3.75,123.07a.08.08,0,0,1-.08.07H132.92a.07.07,0,0,1-.08-.08l4.37-52.77a.07.07,0,0,1,.06-.07c21.7-3.13,38.56-25.27,38.56-52.1a52.34,52.34,0,0,0-30.06-49.54.08.08,0,0,1-.05-.08L149,331.75l.54-.15,1,10.69a9.07,9.07,0,0,0,5.77,8.61,8.66,8.66,0,0,0,5.75.08l66.14-31.38s1.11,9,1.11,9.07v40.26a8.75,8.75,0,0,0,8.76,8.75,8.57,8.57,0,0,0,2.75-.45l36.59-21.52c.05,0,0-.06,0,0l-22.63,98.53a8.75,8.75,0,0,0,1.53,7.22l26.12,34.82a8.93,8.93,0,0,0,5.87,3.6,8.76,8.76,0,0,0,8.27-3.41l26.26-35a8.75,8.75,0,0,0,1.53-7.22L301.68,355.8a.07.07,0,0,1,.1-.09l37.58,23.52a8.66,8.66,0,0,0,5.75-.07,9.08,9.08,0,0,0,5.77-8.61V330.67c0-.05.05-11.09.1-11.07L418.13,353a8.66,8.66,0,0,0,5.75-.08,9.07,9.07,0,0,0,5.76-8.61V331.6l.55.15,16.19,194.39a.07.07,0,0,1-.08.08H394.71a.08.08,0,0,1-.08-.07" transform="translate(-110.57 -14.6)"/><path class="cls-4" d="M464.65,534.25l-17.5-210a8.76,8.76,0,0,0-6.44-7.72l-11-3a.09.09,0,0,1-.06-.08v-6a8.74,8.74,0,0,0-6.85-8.55l-71.85-15.94a.07.07,0,0,1-.06-.07V260a.09.09,0,0,1,0-.07c.75-.58,1.52-1.11,2.27-1.72A139.08,139.08,0,0,0,403,158.71a.08.08,0,0,1,.08-.07h.27a8.83,8.83,0,0,0,8.83-8.83v-7.24c0-68.87-56.15-125.31-125-123.94a122.53,122.53,0,0,0-120,122.5v17.51a8.75,8.75,0,0,0,8.75,8.75,7.69,7.69,0,0,0,1.07-.17A139.32,139.32,0,0,0,226,258.16c.75.61,1.52,1.14,2.28,1.72a.09.09,0,0,1,0,.07v22.91a.09.09,0,0,1-.06.07l-71.86,16a8.74,8.74,0,0,0-6.85,8.53v6a.08.08,0,0,1-.06.08l-11,3a8.75,8.75,0,0,0-6.41,7.72l-17.5,210.05a8.74,8.74,0,0,0,8,9.45l.72,0H455.9a8.76,8.76,0,0,0,8.78-8.72C464.68,534.75,464.67,534.5,464.65,534.25ZM412.14,314.49v6.92s-.05,11.09-.1,11.07l-61.16-31.39v-.28l61.2,13.6A.09.09,0,0,1,412.14,314.49ZM184.59,141.13a105,105,0,0,1,210.05-.07.08.08,0,0,1-.08.07H368.38a43.8,43.8,0,0,1-43.76-43.76,8.76,8.76,0,0,0-8.75-8.76,8.64,8.64,0,0,0-1.9.21L308.72,90a376.53,376.53,0,0,0-124.13,52.07ZM193.78,157A359.09,359.09,0,0,1,308,108.12a.08.08,0,0,1,.1.06,61.37,61.37,0,0,0,60.31,50.46h17a.08.08,0,0,1,.08.08,121.58,121.58,0,0,1-43.5,86,81.74,81.74,0,0,1-104.69,0,121.69,121.69,0,0,1-43.53-87.6A.08.08,0,0,1,193.78,157Zm95.8,175.58-43.69-21.84a.08.08,0,0,1,0-.07V271.05A.08.08,0,0,1,246,271a98.54,98.54,0,0,0,87.3,0,.08.08,0,0,1,.11.07v39.67a.08.08,0,0,1,0,.07l-43.68,21.84Zm43.79-2.17v17.22c0,.05-.05,6.58-.1,6.56L312.6,340.84a.09.09,0,0,1,0-.15l20.67-10.31A.08.08,0,0,1,333.37,330.45Zm-27,123.78-16.73,22.31a.07.07,0,0,1-.12,0l-16.73-22.31a.07.07,0,0,1,0-.06l16.73-72.49a.08.08,0,0,1,.15,0l16.73,72.49A.07.07,0,0,1,306.4,454.23ZM267.62,349.9,247,356.81s-1.19-23.05-1.19-24.85l21.86,17.94C267.68,349.93,267.68,349.88,267.62,349.9ZM167.14,314.41l59.8-13.28a.07.07,0,0,1,.05.14l-58.81,29.21c-.05,0-1.1-9-1.1-9.07v-6.92A.09.09,0,0,1,167.14,314.41Zm-22.88,76.13a37.19,37.19,0,0,1,14.07,30.66h0a34.67,34.67,0,0,1-19.43,33.64.07.07,0,0,1-.11-.07l5.34-64.17A.09.09,0,0,1,144.26,390.54ZM394.63,526.15l-2.75-120.47a11,11,0,0,0-11-10.74h-3.69a.09.09,0,0,0-.08.08V526.15a.07.07,0,0,1-.08.07H202.17a.07.07,0,0,1-.08-.07V395a.08.08,0,0,0-.08-.08h-5.28a8.4,8.4,0,0,0-8.39,8.14l-3.75,123.07a.08.08,0,0,1-.08.07H132.92a.07.07,0,0,1-.08-.08l4.37-52.77a.07.07,0,0,1,.06-.07c21.7-3.13,38.56-25.27,38.56-52.1a52.34,52.34,0,0,0-30.06-49.54.08.08,0,0,1-.05-.08L149,331.75l.54-.15,1,10.69a9.07,9.07,0,0,0,5.77,8.61,8.66,8.66,0,0,0,5.75.08l66.14-31.38s1.11,9,1.11,9.07v40.26a8.75,8.75,0,0,0,8.76,8.75,8.57,8.57,0,0,0,2.75-.45l36.59-21.52c.05,0,0-.06,0,0l-22.63,98.53a8.75,8.75,0,0,0,1.53,7.22l26.12,34.82a8.93,8.93,0,0,0,5.87,3.6,8.76,8.76,0,0,0,8.27-3.41l26.26-35a8.75,8.75,0,0,0,1.53-7.22L301.68,355.8a.07.07,0,0,1,.1-.09l37.58,23.52a8.66,8.66,0,0,0,5.75-.07,9.08,9.08,0,0,0,5.77-8.61V330.67c0-.05.05-11.09.1-11.07L418.13,353a8.66,8.66,0,0,0,5.75-.08,9.07,9.07,0,0,0,5.76-8.61V331.6l.55.15,16.19,194.39a.07.07,0,0,1-.08.08H394.71A.08.08,0,0,1,394.63,526.15Z" transform="translate(-110.57 -14.6)"/></g></svg>