<svg xmlns="http://www.w3.org/2000/svg" width="23.164" height="51.292"><g data-name="Group 31"><g data-name="Group 25"><path data-name="Path 87" d="M11.582 3.309c4.633 0 8.273 1.82 8.273 6.618v16.546c0 4.8-3.64 6.618-8.273 6.618s-8.273-1.82-8.273-6.618V9.927c0-4.8 3.64-6.618 8.273-6.618m0-3.309C4.467 0 0 3.806 0 9.927v16.546C0 32.6 4.467 36.4 11.582 36.4s11.582-3.8 11.582-9.927V9.927C23.164 3.806 18.7 0 11.582 0z" fill="#fff"/></g><path data-name="Rectangle 49" fill="#fff" d="M10 8.292h3v7h-3z"/><path data-name="Path 88" d="M14.891 41.365v1.655h-1.655v1.655H9.927v-1.656H8.273v-1.654H6.618V39.71h3.309v1.655h3.309V39.71h3.309v1.655z" fill="#fff" fill-rule="evenodd"/><path data-name="Path 89" d="M13.237 49.638v1.655H9.928v-1.655H8.273v-1.655h6.618v1.655z" fill="#fff" fill-rule="evenodd"/></g></svg>