<svg xmlns="http://www.w3.org/2000/svg" width="133" height="45.186"><text transform="translate(0 30)" fill="#697cad" font-size="28" font-family="SegoeUI-Bold, Segoe UI" font-weight="700"><tspan x="0" y="0">БИЕК ТАУ</tspan></text><path d="M9.151 45.052H7.418V38.8H5.879a21.255 21.255 0 01-1.164 5.391 1.769 1.769 0 01-1.647.969 3.031 3.031 0 01-.933-.15v-1.384a1.689 1.689 0 00.536.107.593.593 0 00.389-.139 1.843 1.843 0 00.373-.74 18.16 18.16 0 00.491-2.074q.287-1.472.55-3.42h4.677zm5.01.134a3.581 3.581 0 01-2.693-1.075 3.861 3.861 0 01-1.041-2.8 4.137 4.137 0 011.057-2.95 3.658 3.658 0 012.8-1.126 3.491 3.491 0 012.663 1.075 3.975 3.975 0 011.016 2.843 4.071 4.071 0 01-1.053 2.923 3.618 3.618 0 01-2.749 1.11zm.075-6.464a1.744 1.744 0 00-1.448.684 2.852 2.852 0 00-.536 1.81 2.8 2.8 0 00.536 1.808 1.719 1.719 0 001.405.665 1.736 1.736 0 001.421-.646 2.768 2.768 0 00.526-1.794 3 3 0 00-.51-1.861 1.661 1.661 0 00-1.394-.665zm9.585.07h-2.848v6.26h-1.732V37.36h4.581zm7.96 6.26h-1.635v-4.226a12.266 12.266 0 01.054-1.245h-.032q-.113.22-.386.638l-3.177 4.833h-1.743V37.36H26.5v4.254a8.224 8.224 0 01-.043 1.057h.021q.027-.064.4-.628l3.048-4.683h1.856zm7.279-.274a5.072 5.072 0 01-2.2.408 3.707 3.707 0 01-2.784-1.041 3.8 3.8 0 01-1.014-2.773A4.064 4.064 0 0134.2 38.38a3.987 3.987 0 012.958-1.148 5.532 5.532 0 011.9.284v1.668a3.365 3.365 0 00-1.758-.461 2.334 2.334 0 00-1.749.681 2.528 2.528 0 00-.665 1.845 2.479 2.479 0 00.628 1.778 2.217 2.217 0 001.69.662 3.6 3.6 0 001.856-.489zm6.74-6.007h-2.191v6.281h-1.738v-6.281h-2.183V37.36H45.8zm7.958 6.281h-1.636v-4.226a12.265 12.265 0 01.054-1.244h-.032q-.113.22-.386.638l-3.176 4.832h-1.744V37.36h1.636v4.254a8.224 8.224 0 01-.043 1.057h.021q.027-.064.4-.628L51.9 37.36h1.856zm7.939 0h-1.738V42a4.5 4.5 0 01-2.183.59q-2.387 0-2.387-2.3v-2.93h1.727v2.784q0 1 1.1 1a3.361 3.361 0 001.743-.526V37.36H61.7zm6.415 0H63.5V37.36h4.436v1.411h-2.7v1.711h2.516v1.405h-2.521v1.759h2.88zm6.748-.274a5.072 5.072 0 01-2.2.408 3.707 3.707 0 01-2.784-1.041 3.8 3.8 0 01-1.014-2.773A4.064 4.064 0 0170 38.38a3.987 3.987 0 012.958-1.148 5.532 5.532 0 011.9.284v1.668a3.365 3.365 0 00-1.758-.461 2.334 2.334 0 00-1.749.681 2.528 2.528 0 00-.665 1.845 2.479 2.479 0 00.628 1.778A2.217 2.217 0 0073 43.69a3.6 3.6 0 001.86-.49zm7.735.274h-2.189l-2.242-3.341a3.2 3.2 0 01-.2-.424h-.027v3.765H76.2V37.36h1.733V41h.027q.064-.15.215-.429L80.3 37.36h2.065l-2.683 3.669zm7.654 0h-1.636v-4.226a12.266 12.266 0 01.054-1.244h-.032q-.113.22-.386.638l-3.176 4.832h-1.744V37.36h1.636v4.254a8.224 8.224 0 01-.043 1.057h.021q.027-.064.4-.628l3.05-4.683h1.856zm8.684 0H97.3v-4.226a12.266 12.266 0 01.054-1.244h-.032q-.113.22-.386.638l-3.179 4.832h-1.743V37.36h1.636v4.254a8.224 8.224 0 01-.043 1.057h.021q.027-.064.4-.628l3.049-4.683h1.856zm-1.089-10.261a1.934 1.934 0 01-.735 1.357 2.473 2.473 0 01-1.582.5 2.5 2.5 0 01-1.6-.5 1.776 1.776 0 01-.687-1.357h1.234a.937.937 0 00.338.679 1.1 1.1 0 00.735.266 1.062 1.062 0 00.724-.268.968.968 0 00.338-.676zm12.536 10.261h-1.733v-6.179h-3.186v6.179h-1.733V37.36h6.651zm8.518 0h-1.888l-.547-1.711h-2.736l-.542 1.711h-1.877l2.8-7.692h2.054zm-2.832-3.041l-.826-2.585a3.37 3.37 0 01-.129-.692h-.043a2.935 2.935 0 01-.134.67l-.834 2.607zm5.525.392v2.65h-1.733V37.36h2.714q2.907 0 2.907 2.451a2.352 2.352 0 01-.834 1.875 3.3 3.3 0 01-2.229.716zm0-3.712v2.4h.681q1.384 0 1.384-1.212 0-1.185-1.384-1.185zM133 45.052h-2.189l-2.242-3.342a3.2 3.2 0 01-.2-.424h-.027v3.766h-1.733V37.36h1.733V41h.027q.064-.15.215-.429l2.116-3.211h2.065l-2.682 3.669z" fill="#6a6a6a"/></svg>