<svg xmlns="http://www.w3.org/2000/svg" width="12" height="12"><path d="M12 9.477a2.813 2.813 0 01-.085.6 3.387 3.387 0 01-.179.584 2.285 2.285 0 01-1.04.9 3.159 3.159 0 01-2.033.4 3.684 3.684 0 01-.49-.107q-.273-.077-.4-.124t-.473-.175q-.341-.128-.418-.153a7.718 7.718 0 01-1.492-.707 14.316 14.316 0 01-4.091-4.091 7.719 7.719 0 01-.707-1.491q-.026-.077-.153-.418t-.175-.473q-.047-.132-.124-.4a3.686 3.686 0 01-.107-.49 3.16 3.16 0 01.4-2.033 2.285 2.285 0 01.9-1.04A3.386 3.386 0 011.917.08a2.813 2.813 0 01.6-.085.477.477 0 01.179.026q.153.051.452.648.094.162.256.46t.3.541q.136.243.264.456.026.034.149.213a2.38 2.38 0 01.183.3.556.556 0 01.06.243.707.707 0 01-.243.426 4.154 4.154 0 01-.528.469 5.136 5.136 0 00-.528.452.649.649 0 00-.243.392.576.576 0 00.043.192 1.865 1.865 0 00.072.175q.03.06.119.2t.1.162a8.447 8.447 0 003.486 3.486q.017.009.162.1t.2.119a1.862 1.862 0 00.175.072.576.576 0 00.192.043.649.649 0 00.392-.243 5.129 5.129 0 00.452-.528 4.155 4.155 0 01.469-.528.707.707 0 01.426-.243.556.556 0 01.243.06 2.382 2.382 0 01.3.183l.213.149q.213.128.456.264t.541.3q.3.162.46.256.6.3.648.452a.477.477 0 01.033.185z" fill="#b8b8b8"/></svg>